REM DIRINDEX 1\2,1\3,1\4
REM DIRNAME folder01,folder02,folder03,folder04
TITLE ""
FILE "057 057_Lesson 3_TOEFL_3900.mp3" MP3
  TRACK 01 AUDIO
    TITLE "4:cjc151_2454"
    INDEX 01 00:00:00
  TRACK 02 AUDIO
    TITLE "0:"
    INDEX 01 00:01:42
  TRACK 03 AUDIO
    TITLE "2:cjc151_2455"
    INDEX 01 00:02:20
  TRACK 04 AUDIO
    TITLE "0:"
    INDEX 01 00:03:25
  TRACK 05 AUDIO
    TITLE "3:cjc151_2456"
    INDEX 01 00:05:03
  TRACK 06 AUDIO
    TITLE "0:"
    INDEX 01 00:08:28
  TRACK 07 AUDIO
    TITLE "2:cjc151_2457"
    INDEX 01 00:10:06
  TRACK 08 AUDIO
    TITLE "0:"
    INDEX 01 00:11:21
  TRACK 09 AUDIO
    TITLE "3:cjc151_2458"
    INDEX 01 00:13:00
  TRACK 10 AUDIO
    TITLE "0:"
    INDEX 01 00:17:12
  TRACK 11 AUDIO
    TITLE "2:cjc151_2459"
    INDEX 01 00:18:66
  TRACK 12 AUDIO
    TITLE "0:"
    INDEX 01 00:20:00
  TRACK 13 AUDIO
    TITLE "3:cjc151_2460"
    INDEX 01 00:21:53
  TRACK 14 AUDIO
    TITLE "0:"
    INDEX 01 00:25:01
  TRACK 15 AUDIO
    TITLE "2:cjc151_2461"
    INDEX 01 00:26:54
  TRACK 16 AUDIO
    TITLE "0:"
    INDEX 01 00:27:53
  TRACK 17 AUDIO
    TITLE "3:cjc151_2462"
    INDEX 01 00:29:34
  TRACK 18 AUDIO
    TITLE "0:"
    INDEX 01 00:33:28
  TRACK 19 AUDIO
    TITLE "2:cjc151_2463"
    INDEX 01 00:35:08
  TRACK 20 AUDIO
    TITLE "0:"
    INDEX 01 00:36:17
  TRACK 21 AUDIO
    TITLE "3:cjc151_2464"
    INDEX 01 00:37:71
  TRACK 22 AUDIO
    TITLE "0:"
    INDEX 01 00:41:69
  TRACK 23 AUDIO
    TITLE "2:cjc151_2465"
    INDEX 01 00:43:48
  TRACK 24 AUDIO
    TITLE "0:"
    INDEX 01 00:44:60
  TRACK 25 AUDIO
    TITLE "3:cjc151_2466"
    INDEX 01 00:46:35
  TRACK 26 AUDIO
    TITLE "0:"
    INDEX 01 00:50:52
  TRACK 27 AUDIO
    TITLE "2:cjc151_2467"
    INDEX 01 00:52:30
  TRACK 28 AUDIO
    TITLE "0:"
    INDEX 01 00:53:27
  TRACK 29 AUDIO
    TITLE "3:cjc151_2468"
    INDEX 01 00:55:04
  TRACK 30 AUDIO
    TITLE "0:"
    INDEX 01 00:58:50
  TRACK 31 AUDIO
    TITLE "2:cjc151_2469"
    INDEX 01 01:00:27
  TRACK 32 AUDIO
    TITLE "0:"
    INDEX 01 01:01:25
  TRACK 33 AUDIO
    TITLE "3:cjc151_2470"
    INDEX 01 01:03:06
  TRACK 34 AUDIO
    TITLE "0:"
    INDEX 01 01:07:57
  TRACK 35 AUDIO
    TITLE "2:cjc151_2471"
    INDEX 01 01:09:36
  TRACK 36 AUDIO
    TITLE "0:"
    INDEX 01 01:10:53
  TRACK 37 AUDIO
    TITLE "3:cjc151_2472"
    INDEX 01 01:12:32
  TRACK 38 AUDIO
    TITLE "0:"
    INDEX 01 01:16:63
  TRACK 39 AUDIO
    TITLE "2:cjc151_2473"
    INDEX 01 01:18:43
  TRACK 40 AUDIO
    TITLE "0:"
    INDEX 01 01:19:44
  TRACK 41 AUDIO
    TITLE "3:cjc151_2474"
    INDEX 01 01:21:23
  TRACK 42 AUDIO
    TITLE "0:"
    INDEX 01 01:24:32
  TRACK 43 AUDIO
    TITLE "2:cjc151_2475"
    INDEX 01 01:26:11
  TRACK 44 AUDIO
    TITLE "0:"
    INDEX 01 01:26:74
  TRACK 45 AUDIO
    TITLE "3:cjc151_2476"
    INDEX 01 01:28:51
  TRACK 46 AUDIO
    TITLE "0:"
    INDEX 01 01:32:25
  TRACK 47 AUDIO
    TITLE "2:cjc151_2477"
    INDEX 01 01:34:03
  TRACK 48 AUDIO
    TITLE "0:"
    INDEX 01 01:35:14
  TRACK 49 AUDIO
    TITLE "3:cjc151_2478"
    INDEX 01 01:36:68
  TRACK 50 AUDIO
    TITLE "0:"
    INDEX 01 01:40:72
  TRACK 51 AUDIO
    TITLE "2:cjc151_2479"
    INDEX 01 01:42:51
  TRACK 52 AUDIO
    TITLE "0:"
    INDEX 01 01:43:54
  TRACK 53 AUDIO
    TITLE "3:cjc151_2480"
    INDEX 01 01:45:34
  TRACK 54 AUDIO
    TITLE "0:"
    INDEX 01 01:49:28
  TRACK 55 AUDIO
    TITLE "2:cjc151_2481"
    INDEX 01 01:51:07
  TRACK 56 AUDIO
    TITLE "0:"
    INDEX 01 01:52:04
  TRACK 57 AUDIO
    TITLE "3:cjc151_2482"
    INDEX 01 01:53:61
  TRACK 58 AUDIO
    TITLE "0:"
    INDEX 01 01:57:21
  TRACK 59 AUDIO
    TITLE "2:cjc151_2483"
    INDEX 01 01:59:03
  TRACK 60 AUDIO
    TITLE "0:"
    INDEX 01 02:00:16
  TRACK 61 AUDIO
    TITLE "3:cjc151_2484"
    INDEX 01 02:01:66
  TRACK 62 AUDIO
    TITLE "0:"
    INDEX 01 02:05:17
  TRACK 63 AUDIO
    TITLE "2:cjc151_2485"
    INDEX 01 02:06:69
  TRACK 64 AUDIO
    TITLE "0:"
    INDEX 01 02:07:67
  TRACK 65 AUDIO
    TITLE "3:cjc151_2486"
    INDEX 01 02:09:44
  TRACK 66 AUDIO
    TITLE "0:"
    INDEX 01 02:12:66
  TRACK 67 AUDIO
    TITLE "2:cjc151_2487"
    INDEX 01 02:14:43
  TRACK 68 AUDIO
    TITLE "0:"
    INDEX 01 02:15:62
  TRACK 69 AUDIO
    TITLE "3:cjc151_2488"
    INDEX 01 02:17:38
  TRACK 70 AUDIO
    TITLE "0:"
    INDEX 01 02:21:49
  TRACK 71 AUDIO
    TITLE "2:cjc151_2489"
    INDEX 01 02:23:28
  TRACK 72 AUDIO
    TITLE "0:"
    INDEX 01 02:24:36
  TRACK 73 AUDIO
    TITLE "3:cjc151_2490"
    INDEX 01 02:26:13
  TRACK 74 AUDIO
    TITLE "0:"
    INDEX 01 02:29:37
  TRACK 75 AUDIO
    TITLE "2:cjc151_2491"
    INDEX 01 02:31:16
  TRACK 76 AUDIO
    TITLE "0:"
    INDEX 01 02:32:35
  TRACK 77 AUDIO
    TITLE "3:cjc151_2492"
    INDEX 01 02:34:13
  TRACK 78 AUDIO
    TITLE "0:"
    INDEX 01 02:38:54
  TRACK 79 AUDIO
    TITLE "2:cjc151_2493"
    INDEX 01 02:40:31
  TRACK 80 AUDIO
    TITLE "0:"
    INDEX 01 02:41:24
  TRACK 81 AUDIO
    TITLE "3:cjc151_2494"
    INDEX 01 02:43:06
  TRACK 82 AUDIO
    TITLE "0:"
    INDEX 01 02:47:74
  TRACK 83 AUDIO
    TITLE "2:cjc151_2495"
    INDEX 01 02:49:53
  TRACK 84 AUDIO
    TITLE "0:"
    INDEX 01 02:50:66
  TRACK 85 AUDIO
    TITLE "3:cjc151_2496"
    INDEX 01 02:52:48
  TRACK 86 AUDIO
    TITLE "0:"
    INDEX 01 02:56:08
  TRACK 87 AUDIO
    TITLE "2:cjc151_2497"
    INDEX 01 02:57:55
  TRACK 88 AUDIO
    TITLE "0:"
    INDEX 01 02:58:74
  TRACK 89 AUDIO
    TITLE "3:cjc151_2498"
    INDEX 01 03:00:53
  TRACK 90 AUDIO
    TITLE "0:"
    INDEX 01 03:04:57
